<?xml version="1.0" encoding="UTF-8" standalone="no"?>
<!-- Created with Inkscape (http://www.inkscape.org/) -->

<svg
   xmlns:dc="http://purl.org/dc/elements/1.1/"
   xmlns:cc="http://creativecommons.org/ns#"
   xmlns:rdf="http://www.w3.org/1999/02/22-rdf-syntax-ns#"
   xmlns:svg="http://www.w3.org/2000/svg"
   xmlns="http://www.w3.org/2000/svg"
   xmlns:sodipodi="http://sodipodi.sourceforge.net/DTD/sodipodi-0.dtd"
   xmlns:inkscape="http://www.inkscape.org/namespaces/inkscape"
   width="320"
   height="320"
   viewBox="0 0 84.666668 84.666669"
   version="1.1"
   id="svg8"
   inkscape:version="0.92.4 5da689c313, 2019-01-14"
   sodipodi:docname="palisade_logo.svg"
   style="enable-background:new">
  <defs
     id="defs2">
    <clipPath
       clipPathUnits="userSpaceOnUse"
       id="clipPath4805">
      <path
         id="path4807"
         d="m 57.15,14.363506 v 0.0646 a 3.175154,0.73129005 0 0 1 0.01344,-0.05995 c -5.29e-4,-2.05e-4 -0.01344,-0.0047 -0.01344,-0.0047 z m 0,0.0646 v 50.996368 0.0036 c 0,0 5.29e-4,5.29e-4 5.29e-4,5.29e-4 a 3.175154,0.73129005 0 0 0 3.174484,0.727085 3.175154,0.73129005 0 0 0 3.174484,-0.727604 3.175154,0.73129005 0 0 0 5.29e-4,0 v -0.0011 a 3.175154,0.73129005 0 0 0 5.3e-4,-0.0026 3.175154,0.73129005 0 0 0 -5.3e-4,-0.0031 V 14.430686 a 3.175154,0.73129005 0 0 1 -3.175,0.728637 3.175154,0.73129005 0 0 1 -3.175,-0.731221 z m 6.35,-0.0646 c 0,0 -0.01196,0.004 -0.01241,0.0041 A 3.175154,0.73129005 0 0 1 63.5,14.424967 Z"
         style="opacity:1;fill:#b59125;fill-opacity:1;stroke:none;stroke-width:0.80000001;stroke-linecap:butt;stroke-miterlimit:4;stroke-dasharray:none;stroke-dashoffset:30.23622131;stroke-opacity:0.66666667"
         inkscape:connector-curvature="0" />
    </clipPath>
  </defs>
  <sodipodi:namedview
     id="base"
     pagecolor="#ffffff"
     bordercolor="#666666"
     borderopacity="1.0"
     inkscape:pageopacity="0.0"
     inkscape:pageshadow="2"
     inkscape:zoom="2.8284272"
     inkscape:cx="195.00019"
     inkscape:cy="184.3133"
     inkscape:document-units="px"
     inkscape:current-layer="g1362"
     showgrid="true"
     inkscape:window-width="2560"
     inkscape:window-height="1331"
     inkscape:window-x="0"
     inkscape:window-y="36"
     inkscape:window-maximized="1"
     inkscape:snap-grids="false"
     units="px">
    <inkscape:grid
       type="xygrid"
       id="grid10" />
  </sodipodi:namedview>
  <metadata
     id="metadata5">
    <rdf:RDF>
      <cc:Work
         rdf:about="">
        <dc:format>image/svg+xml</dc:format>
        <dc:type
           rdf:resource="http://purl.org/dc/dcmitype/StillImage" />
        <dc:title></dc:title>
      </cc:Work>
    </rdf:RDF>
  </metadata>
  <g
     inkscape:label="Layer 1"
     inkscape:groupmode="layer"
     id="layer1"
     transform="translate(0,-212.33331)">
    <g
       id="g1354"
       transform="translate(95.250006,201.0834)">
      <g
         id="g1326"
         transform="translate(0,-21.166668)" />
    </g>
    <g
       id="g1765"
       transform="matrix(0.9,0,0,0.9,4.2373694,27.088484)"
       style="stroke-width:1.11111116">
      <path
         sodipodi:nodetypes="ccccc"
         inkscape:connector-curvature="0"
         id="path1322"
         d="m -94.151313,83.79888 h 80.990039 v 4.29231 h -80.990039 z"
         style="opacity:1;fill:#babdb6;fill-opacity:1;stroke:none;stroke-width:0.8888889;stroke-linecap:butt;stroke-miterlimit:4;stroke-dasharray:none;stroke-dashoffset:30.23622131;stroke-opacity:1;enable-background:new"
         transform="translate(95.250005,179.91673)" />
      <path
         style="opacity:1;fill:#888a85;fill-opacity:1;stroke:none;stroke-width:0.8888889;stroke-linecap:butt;stroke-miterlimit:4;stroke-dasharray:none;stroke-dashoffset:30.23622131;stroke-opacity:1;enable-background:new"
         d="m -11.601311,83.79888 h -1.559963 v 4.29231 h 1.559963 z"
         id="path1324"
         inkscape:connector-curvature="0"
         sodipodi:nodetypes="ccccc"
         transform="translate(95.250005,179.91673)" />
      <g
         transform="translate(-1.587498,-82.549928)"
         id="g1332"
         style="stroke-width:1.11111116;enable-background:new">
        <path
           style="opacity:1;fill:#babdb6;fill-opacity:1;stroke:none;stroke-width:0.8888889;stroke-linecap:butt;stroke-miterlimit:4;stroke-dasharray:none;stroke-dashoffset:30.23622131;stroke-opacity:1"
           d="M 2.6861936,367.4322 H 83.676232 v 4.2923 H 2.6861936 Z"
           id="path1328"
           inkscape:connector-curvature="0"
           sodipodi:nodetypes="ccccc" />
        <path
           sodipodi:nodetypes="ccccc"
           inkscape:connector-curvature="0"
           id="path1330"
           d="m 85.236195,367.4322 h -1.559963 v 4.2923 h 1.559963 z"
           style="opacity:1;fill:#888a85;fill-opacity:1;stroke:none;stroke-width:0.8888889;stroke-linecap:butt;stroke-miterlimit:4;stroke-dasharray:none;stroke-dashoffset:30.23622131;stroke-opacity:1" />
      </g>
      <path
         style="opacity:1;fill:#d49e30;fill-opacity:1;stroke:none;stroke-width:0.8888889;stroke-linecap:butt;stroke-miterlimit:4;stroke-dasharray:none;stroke-dashoffset:30.23622131;stroke-opacity:1;enable-background:new"
         d="m -91.505479,26.178514 5.834602,-7.937504 5.834602,7.937504 v 66.61638 h -11.669204 z"
         id="path1334"
         inkscape:connector-curvature="0"
         sodipodi:nodetypes="cccccc"
         transform="translate(95.250005,201.0834)" />
      <path
         sodipodi:nodetypes="cccccc"
         inkscape:connector-curvature="0"
         id="path1336"
         d="m -75.630478,63.220173 5.834602,-7.937497 5.834602,7.937497 v 29.574721 h -11.669204 z"
         style="opacity:1;fill:#edd400;fill-opacity:1;stroke:none;stroke-width:0.8888889;stroke-linecap:butt;stroke-miterlimit:4;stroke-dasharray:none;stroke-dashoffset:30.23622131;stroke-opacity:1;enable-background:new"
         transform="translate(95.250005,201.0834)" />
      <path
         style="opacity:1;fill:#73d216;fill-opacity:1;stroke:none;stroke-width:0.8888889;stroke-linecap:butt;stroke-miterlimit:4;stroke-dasharray:none;stroke-dashoffset:30.23622131;stroke-opacity:1;enable-background:new"
         d="m -59.755477,52.636842 5.834602,-7.9375 5.834602,7.9375 v 40.158052 h -11.669204 z"
         id="path1338"
         inkscape:connector-curvature="0"
         sodipodi:nodetypes="cccccc"
         transform="translate(95.250005,201.0834)" />
      <path
         sodipodi:nodetypes="cccccc"
         inkscape:connector-curvature="0"
         id="path1340"
         d="m -43.880476,57.928516 5.834602,-7.937504 5.834602,7.937504 v 34.866378 h -11.669204 z"
         style="opacity:1;fill:#729fcf;fill-opacity:1;stroke:none;stroke-width:0.8888889;stroke-linecap:butt;stroke-miterlimit:4;stroke-dasharray:none;stroke-dashoffset:30.23622131;stroke-opacity:1;enable-background:new"
         transform="translate(95.250005,201.0834)" />
      <path
         style="opacity:1;fill:#ad7fa8;fill-opacity:1;stroke:none;stroke-width:0.8888889;stroke-linecap:butt;stroke-miterlimit:4;stroke-dasharray:none;stroke-dashoffset:30.23622131;stroke-opacity:1;enable-background:new"
         d="m -28.005475,42.053515 5.834602,-7.937504 5.834602,7.937504 v 50.741379 h -11.669204 z"
         id="path1342"
         inkscape:connector-curvature="0"
         sodipodi:nodetypes="cccccc"
         transform="translate(95.250005,201.0834)" />
      <path
         sodipodi:nodetypes="ccccccc"
         inkscape:connector-curvature="0"
         id="path1344"
         d="m -78.276312,26.178514 -5.807065,-7.937504 h -1.5875 l 5.834602,7.937504 v 66.61638 h 1.559963 z"
         style="opacity:1;fill:#905902;fill-opacity:1;stroke:none;stroke-width:0.8888889;stroke-linecap:butt;stroke-miterlimit:4;stroke-dasharray:none;stroke-dashoffset:30.23622131;stroke-opacity:1;enable-background:new"
         transform="translate(95.250005,201.0834)" />
      <path
         style="opacity:1;fill:#c4a000;fill-opacity:1;stroke:none;stroke-width:0.8888889;stroke-linecap:butt;stroke-miterlimit:4;stroke-dasharray:none;stroke-dashoffset:30.23622131;stroke-opacity:1;enable-background:new"
         d="m -62.401311,63.220173 -5.807065,-7.937497 h -1.5875 l 5.834602,7.937497 v 29.574721 h 1.559963 z"
         id="path1346"
         inkscape:connector-curvature="0"
         sodipodi:nodetypes="ccccccc"
         transform="translate(95.250005,201.0834)" />
      <path
         sodipodi:nodetypes="ccccccc"
         inkscape:connector-curvature="0"
         id="path1348"
         d="m -46.52631,52.636842 -5.807065,-7.9375 h -1.5875 l 5.834602,7.9375 v 40.158052 h 1.559963 z"
         style="opacity:1;fill:#4e9a06;fill-opacity:1;stroke:none;stroke-width:0.8888889;stroke-linecap:butt;stroke-miterlimit:4;stroke-dasharray:none;stroke-dashoffset:30.23622131;stroke-opacity:1;enable-background:new"
         transform="translate(95.250005,201.0834)" />
      <path
         style="opacity:1;fill:#3465a4;fill-opacity:1;stroke:none;stroke-width:0.8888889;stroke-linecap:butt;stroke-miterlimit:4;stroke-dasharray:none;stroke-dashoffset:30.23622131;stroke-opacity:1;enable-background:new"
         d="m -30.651309,57.928516 -5.807065,-7.937504 h -1.5875 l 5.834602,7.937504 v 34.866378 h 1.559963 z"
         id="path1350"
         inkscape:connector-curvature="0"
         sodipodi:nodetypes="ccccccc"
         transform="translate(95.250005,201.0834)" />
      <path
         sodipodi:nodetypes="ccccccc"
         inkscape:connector-curvature="0"
         id="path1352"
         d="m -14.776308,42.053515 -5.807065,-7.937504 h -1.5875 l 5.834602,7.937504 v 50.741379 h 1.559963 z"
         style="opacity:1;fill:#75507b;fill-opacity:1;stroke:none;stroke-width:0.8888889;stroke-linecap:butt;stroke-miterlimit:4;stroke-dasharray:none;stroke-dashoffset:30.23622131;stroke-opacity:1;enable-background:new"
         transform="translate(95.250005,201.0834)" />
      <g
         id="g1362"
         transform="rotate(-1.2354177,-8412.2471,555.70993)"
         style="stroke-width:1.11111116">
        <path
           inkscape:connector-curvature="0"
           id="path1356"
           d="m 28.764132,404.19292 c -6.301485,0.17647 -9.179708,2.34577 -16.725593,8.82685 18.595427,-7.64239 24.638149,-0.38742 23.664512,5.37701 0.654887,-1.12967 1.34971,-2.33804 1.41654,-3.65553 0.17729,-3.49531 -0.02649,-10.78159 -8.355459,-10.54833 z"
           style="fill:#a40000;stroke:none;stroke-width:0.29398149px;stroke-linecap:butt;stroke-linejoin:miter;stroke-opacity:1"
           sodipodi:nodetypes="scccs" />
        <path
           style="fill:#ef2929;stroke:none;stroke-width:1px;stroke-linecap:butt;stroke-linejoin:miter;stroke-opacity:1"
           d="M 134.00781,24.367188 C 110.98692,24.983747 75.001083,38.647419 39.839844,87.060547 60.73699,76.77651 66.339457,63.524158 82.787109,58.552734 c 8.332761,-2.518638 18.718041,-4.616467 26.115231,-0.02734 10.28494,6.380656 17.32855,20.50856 16.09375,32.548828 -1.83801,17.921998 -22.16137,31.631578 -33.291012,42.578118 -21.581376,21.22638 -42.772815,35.84056 -52.117187,108.69922 1.752898,-5.8421 3.258263,-10.65873 4.667968,-15.02734 22.77683,-62.88486 57.607011,-63.60745 92.375001,-88.16211 25.95642,-18.33154 42.74418,-52.602489 36.16016,-81.623048 -3.76381,-16.58987 -20.08113,-33.357175 -38.78321,-33.171874 z"
           transform="matrix(0.29391315,0.00633837,-0.00633837,0.29391315,0.88106818,387.17912)"
           id="path1358"
           inkscape:connector-curvature="0"
           sodipodi:nodetypes="ccaaacccsac" />
      </g>
      <g
         id="g1368"
         transform="matrix(1.44,0,0,1.44,2.5017963,-325.75714)"
         style="stroke-width:0.7716049">
        <path
           id="path1364"
           transform="matrix(0.26458334,0,0,0.26458334,0,212.33331)"
           d="m 21.136719,747.78906 a 2.9999952,2.9999952 0 0 1 1.001953,2.23242 2.9999952,2.9999952 0 0 1 -3,3 2.9999952,2.9999952 0 0 1 -1.507813,-0.4082 l 0.308594,0.22852 c 1.321529,0.98237 3.189503,0.70823 4.171875,-0.61328 0.982377,-1.32155 0.706295,-3.18947 -0.615234,-4.17188 z"
           style="opacity:1;fill:#888a85;fill-opacity:1;stroke:none;stroke-width:2.33304167;stroke-linecap:butt;stroke-miterlimit:4;stroke-dasharray:none;stroke-dashoffset:30.23622131;stroke-opacity:1"
           inkscape:connector-curvature="0" />
        <path
           inkscape:connector-curvature="0"
           id="path1366"
           d="m 5.8574024,410.77666 a 0.79374874,0.79374874 0 0 1 -0.793749,0.79375 0.79374874,0.79374874 0 0 1 -0.793749,-0.79375 0.79374874,0.79374874 0 0 1 0.793749,-0.79375 0.79374874,0.79374874 0 0 1 0.793749,0.79375 z"
           style="opacity:1;fill:#babdb6;fill-opacity:1;stroke:none;stroke-width:0.617284;stroke-linecap:butt;stroke-miterlimit:4;stroke-dasharray:none;stroke-dashoffset:30.23622131;stroke-opacity:1" />
      </g>
      <g
         transform="matrix(1.44,0,0,1.44,2.5017963,-304.59049)"
         id="g1374"
         style="stroke-width:0.7716049">
        <path
           inkscape:connector-curvature="0"
           style="opacity:1;fill:#888a85;fill-opacity:1;stroke:none;stroke-width:2.33304167;stroke-linecap:butt;stroke-miterlimit:4;stroke-dasharray:none;stroke-dashoffset:30.23622131;stroke-opacity:1"
           d="m 21.136719,747.78906 a 2.9999952,2.9999952 0 0 1 1.001953,2.23242 2.9999952,2.9999952 0 0 1 -3,3 2.9999952,2.9999952 0 0 1 -1.507813,-0.4082 l 0.308594,0.22852 c 1.321529,0.98237 3.189503,0.70823 4.171875,-0.61328 0.982377,-1.32155 0.706295,-3.18947 -0.615234,-4.17188 z"
           transform="matrix(0.26458334,0,0,0.26458334,0,212.33331)"
           id="path1370" />
        <path
           style="opacity:1;fill:#babdb6;fill-opacity:1;stroke:none;stroke-width:0.617284;stroke-linecap:butt;stroke-miterlimit:4;stroke-dasharray:none;stroke-dashoffset:30.23622131;stroke-opacity:1"
           d="m 5.8574024,410.77666 a 0.79374874,0.79374874 0 0 1 -0.793749,0.79375 0.79374874,0.79374874 0 0 1 -0.793749,-0.79375 0.79374874,0.79374874 0 0 1 0.793749,-0.79375 0.79374874,0.79374874 0 0 1 0.793749,0.79375 z"
           id="path1372"
           inkscape:connector-curvature="0" />
      </g>
      <g
         transform="matrix(1.44,0,0,1.44,18.376797,-325.75714)"
         id="g1380"
         style="stroke-width:0.7716049">
        <path
           inkscape:connector-curvature="0"
           style="opacity:1;fill:#888a85;fill-opacity:1;stroke:none;stroke-width:2.33304167;stroke-linecap:butt;stroke-miterlimit:4;stroke-dasharray:none;stroke-dashoffset:30.23622131;stroke-opacity:1"
           d="m 21.136719,747.78906 a 2.9999952,2.9999952 0 0 1 1.001953,2.23242 2.9999952,2.9999952 0 0 1 -3,3 2.9999952,2.9999952 0 0 1 -1.507813,-0.4082 l 0.308594,0.22852 c 1.321529,0.98237 3.189503,0.70823 4.171875,-0.61328 0.982377,-1.32155 0.706295,-3.18947 -0.615234,-4.17188 z"
           transform="matrix(0.26458334,0,0,0.26458334,0,212.33331)"
           id="path1376" />
        <path
           style="opacity:1;fill:#babdb6;fill-opacity:1;stroke:none;stroke-width:0.617284;stroke-linecap:butt;stroke-miterlimit:4;stroke-dasharray:none;stroke-dashoffset:30.23622131;stroke-opacity:1"
           d="m 5.8574024,410.77666 a 0.79374874,0.79374874 0 0 1 -0.793749,0.79375 0.79374874,0.79374874 0 0 1 -0.793749,-0.79375 0.79374874,0.79374874 0 0 1 0.793749,-0.79375 0.79374874,0.79374874 0 0 1 0.793749,0.79375 z"
           id="path1378"
           inkscape:connector-curvature="0" />
      </g>
      <g
         id="g1386"
         transform="matrix(1.44,0,0,1.44,18.376797,-304.59049)"
         style="stroke-width:0.7716049">
        <path
           id="path1382"
           transform="matrix(0.26458334,0,0,0.26458334,0,212.33331)"
           d="m 21.136719,747.78906 a 2.9999952,2.9999952 0 0 1 1.001953,2.23242 2.9999952,2.9999952 0 0 1 -3,3 2.9999952,2.9999952 0 0 1 -1.507813,-0.4082 l 0.308594,0.22852 c 1.321529,0.98237 3.189503,0.70823 4.171875,-0.61328 0.982377,-1.32155 0.706295,-3.18947 -0.615234,-4.17188 z"
           style="opacity:1;fill:#888a85;fill-opacity:1;stroke:none;stroke-width:2.33304167;stroke-linecap:butt;stroke-miterlimit:4;stroke-dasharray:none;stroke-dashoffset:30.23622131;stroke-opacity:1"
           inkscape:connector-curvature="0" />
        <path
           inkscape:connector-curvature="0"
           id="path1384"
           d="m 5.8574024,410.77666 a 0.79374874,0.79374874 0 0 1 -0.793749,0.79375 0.79374874,0.79374874 0 0 1 -0.793749,-0.79375 0.79374874,0.79374874 0 0 1 0.793749,-0.79375 0.79374874,0.79374874 0 0 1 0.793749,0.79375 z"
           style="opacity:1;fill:#babdb6;fill-opacity:1;stroke:none;stroke-width:0.617284;stroke-linecap:butt;stroke-miterlimit:4;stroke-dasharray:none;stroke-dashoffset:30.23622131;stroke-opacity:1" />
      </g>
      <g
         id="g1392"
         transform="matrix(1.44,0,0,1.44,34.251811,-325.75714)"
         style="stroke-width:0.7716049">
        <path
           id="path1388"
           transform="matrix(0.26458334,0,0,0.26458334,0,212.33331)"
           d="m 21.136719,747.78906 a 2.9999952,2.9999952 0 0 1 1.001953,2.23242 2.9999952,2.9999952 0 0 1 -3,3 2.9999952,2.9999952 0 0 1 -1.507813,-0.4082 l 0.308594,0.22852 c 1.321529,0.98237 3.189503,0.70823 4.171875,-0.61328 0.982377,-1.32155 0.706295,-3.18947 -0.615234,-4.17188 z"
           style="opacity:1;fill:#888a85;fill-opacity:1;stroke:none;stroke-width:2.33304167;stroke-linecap:butt;stroke-miterlimit:4;stroke-dasharray:none;stroke-dashoffset:30.23622131;stroke-opacity:1"
           inkscape:connector-curvature="0" />
        <path
           inkscape:connector-curvature="0"
           id="path1390"
           d="m 5.8574024,410.77666 a 0.79374874,0.79374874 0 0 1 -0.793749,0.79375 0.79374874,0.79374874 0 0 1 -0.793749,-0.79375 0.79374874,0.79374874 0 0 1 0.793749,-0.79375 0.79374874,0.79374874 0 0 1 0.793749,0.79375 z"
           style="opacity:1;fill:#babdb6;fill-opacity:1;stroke:none;stroke-width:0.617284;stroke-linecap:butt;stroke-miterlimit:4;stroke-dasharray:none;stroke-dashoffset:30.23622131;stroke-opacity:1" />
      </g>
      <g
         transform="matrix(1.44,0,0,1.44,34.251811,-304.59049)"
         id="g1398"
         style="stroke-width:0.7716049">
        <path
           inkscape:connector-curvature="0"
           style="opacity:1;fill:#888a85;fill-opacity:1;stroke:none;stroke-width:2.33304167;stroke-linecap:butt;stroke-miterlimit:4;stroke-dasharray:none;stroke-dashoffset:30.23622131;stroke-opacity:1"
           d="m 21.136719,747.78906 a 2.9999952,2.9999952 0 0 1 1.001953,2.23242 2.9999952,2.9999952 0 0 1 -3,3 2.9999952,2.9999952 0 0 1 -1.507813,-0.4082 l 0.308594,0.22852 c 1.321529,0.98237 3.189503,0.70823 4.171875,-0.61328 0.982377,-1.32155 0.706295,-3.18947 -0.615234,-4.17188 z"
           transform="matrix(0.26458334,0,0,0.26458334,0,212.33331)"
           id="path1394" />
        <path
           style="opacity:1;fill:#babdb6;fill-opacity:1;stroke:none;stroke-width:0.617284;stroke-linecap:butt;stroke-miterlimit:4;stroke-dasharray:none;stroke-dashoffset:30.23622131;stroke-opacity:1"
           d="m 5.8574024,410.77666 a 0.79374874,0.79374874 0 0 1 -0.793749,0.79375 0.79374874,0.79374874 0 0 1 -0.793749,-0.79375 0.79374874,0.79374874 0 0 1 0.793749,-0.79375 0.79374874,0.79374874 0 0 1 0.793749,0.79375 z"
           id="path1396"
           inkscape:connector-curvature="0" />
      </g>
      <g
         transform="matrix(1.44,0,0,1.44,50.126822,-325.75714)"
         id="g1404"
         style="stroke-width:0.7716049">
        <path
           inkscape:connector-curvature="0"
           style="opacity:1;fill:#888a85;fill-opacity:1;stroke:none;stroke-width:2.33304167;stroke-linecap:butt;stroke-miterlimit:4;stroke-dasharray:none;stroke-dashoffset:30.23622131;stroke-opacity:1"
           d="m 21.136719,747.78906 a 2.9999952,2.9999952 0 0 1 1.001953,2.23242 2.9999952,2.9999952 0 0 1 -3,3 2.9999952,2.9999952 0 0 1 -1.507813,-0.4082 l 0.308594,0.22852 c 1.321529,0.98237 3.189503,0.70823 4.171875,-0.61328 0.982377,-1.32155 0.706295,-3.18947 -0.615234,-4.17188 z"
           transform="matrix(0.26458334,0,0,0.26458334,0,212.33331)"
           id="path1400" />
        <path
           style="opacity:1;fill:#babdb6;fill-opacity:1;stroke:none;stroke-width:0.617284;stroke-linecap:butt;stroke-miterlimit:4;stroke-dasharray:none;stroke-dashoffset:30.23622131;stroke-opacity:1"
           d="m 5.8574024,410.77666 a 0.79374874,0.79374874 0 0 1 -0.793749,0.79375 0.79374874,0.79374874 0 0 1 -0.793749,-0.79375 0.79374874,0.79374874 0 0 1 0.793749,-0.79375 0.79374874,0.79374874 0 0 1 0.793749,0.79375 z"
           id="path1402"
           inkscape:connector-curvature="0" />
      </g>
      <g
         id="g1410"
         transform="matrix(1.44,0,0,1.44,50.126822,-304.59049)"
         style="stroke-width:0.7716049">
        <path
           id="path1406"
           transform="matrix(0.26458334,0,0,0.26458334,0,212.33331)"
           d="m 21.136719,747.78906 a 2.9999952,2.9999952 0 0 1 1.001953,2.23242 2.9999952,2.9999952 0 0 1 -3,3 2.9999952,2.9999952 0 0 1 -1.507813,-0.4082 l 0.308594,0.22852 c 1.321529,0.98237 3.189503,0.70823 4.171875,-0.61328 0.982377,-1.32155 0.706295,-3.18947 -0.615234,-4.17188 z"
           style="opacity:1;fill:#888a85;fill-opacity:1;stroke:none;stroke-width:2.33304167;stroke-linecap:butt;stroke-miterlimit:4;stroke-dasharray:none;stroke-dashoffset:30.23622131;stroke-opacity:1"
           inkscape:connector-curvature="0" />
        <path
           inkscape:connector-curvature="0"
           id="path1408"
           d="m 5.8574024,410.77666 a 0.79374874,0.79374874 0 0 1 -0.793749,0.79375 0.79374874,0.79374874 0 0 1 -0.793749,-0.79375 0.79374874,0.79374874 0 0 1 0.793749,-0.79375 0.79374874,0.79374874 0 0 1 0.793749,0.79375 z"
           style="opacity:1;fill:#babdb6;fill-opacity:1;stroke:none;stroke-width:0.617284;stroke-linecap:butt;stroke-miterlimit:4;stroke-dasharray:none;stroke-dashoffset:30.23622131;stroke-opacity:1" />
      </g>
      <g
         id="g1416"
         transform="matrix(1.44,0,0,1.44,66.001833,-325.75714)"
         style="stroke-width:0.7716049">
        <path
           id="path1412"
           transform="matrix(0.26458334,0,0,0.26458334,0,212.33331)"
           d="m 21.136719,747.78906 a 2.9999952,2.9999952 0 0 1 1.001953,2.23242 2.9999952,2.9999952 0 0 1 -3,3 2.9999952,2.9999952 0 0 1 -1.507813,-0.4082 l 0.308594,0.22852 c 1.321529,0.98237 3.189503,0.70823 4.171875,-0.61328 0.982377,-1.32155 0.706295,-3.18947 -0.615234,-4.17188 z"
           style="opacity:1;fill:#888a85;fill-opacity:1;stroke:none;stroke-width:2.33304167;stroke-linecap:butt;stroke-miterlimit:4;stroke-dasharray:none;stroke-dashoffset:30.23622131;stroke-opacity:1"
           inkscape:connector-curvature="0" />
        <path
           inkscape:connector-curvature="0"
           id="path1414"
           d="m 5.8574024,410.77666 a 0.79374874,0.79374874 0 0 1 -0.793749,0.79375 0.79374874,0.79374874 0 0 1 -0.793749,-0.79375 0.79374874,0.79374874 0 0 1 0.793749,-0.79375 0.79374874,0.79374874 0 0 1 0.793749,0.79375 z"
           style="opacity:1;fill:#babdb6;fill-opacity:1;stroke:none;stroke-width:0.617284;stroke-linecap:butt;stroke-miterlimit:4;stroke-dasharray:none;stroke-dashoffset:30.23622131;stroke-opacity:1" />
      </g>
      <g
         transform="matrix(1.44,0,0,1.44,66.001833,-304.59049)"
         id="g1422"
         style="stroke-width:0.7716049">
        <path
           inkscape:connector-curvature="0"
           style="opacity:1;fill:#888a85;fill-opacity:1;stroke:none;stroke-width:2.33304167;stroke-linecap:butt;stroke-miterlimit:4;stroke-dasharray:none;stroke-dashoffset:30.23622131;stroke-opacity:1"
           d="m 21.136719,747.78906 a 2.9999952,2.9999952 0 0 1 1.001953,2.23242 2.9999952,2.9999952 0 0 1 -3,3 2.9999952,2.9999952 0 0 1 -1.507813,-0.4082 l 0.308594,0.22852 c 1.321529,0.98237 3.189503,0.70823 4.171875,-0.61328 0.982377,-1.32155 0.706295,-3.18947 -0.615234,-4.17188 z"
           transform="matrix(0.26458334,0,0,0.26458334,0,212.33331)"
           id="path1418" />
        <path
           style="opacity:1;fill:#babdb6;fill-opacity:1;stroke:none;stroke-width:0.617284;stroke-linecap:butt;stroke-miterlimit:4;stroke-dasharray:none;stroke-dashoffset:30.23622131;stroke-opacity:1"
           d="m 5.8574024,410.77666 a 0.79374874,0.79374874 0 0 1 -0.793749,0.79375 0.79374874,0.79374874 0 0 1 -0.793749,-0.79375 0.79374874,0.79374874 0 0 1 0.793749,-0.79375 0.79374874,0.79374874 0 0 1 0.793749,0.79375 z"
           id="path1420"
           inkscape:connector-curvature="0" />
      </g>
      <g
         style="stroke-width:0.7716049"
         transform="matrix(1.44,0,0,1.44,2.5017963,-362.79881)"
         id="g1428">
        <path
           inkscape:connector-curvature="0"
           style="opacity:1;fill:#888a85;fill-opacity:1;stroke:none;stroke-width:2.33304167;stroke-linecap:butt;stroke-miterlimit:4;stroke-dasharray:none;stroke-dashoffset:30.23622131;stroke-opacity:1"
           d="m 21.136719,747.78906 a 2.9999952,2.9999952 0 0 1 1.001953,2.23242 2.9999952,2.9999952 0 0 1 -3,3 2.9999952,2.9999952 0 0 1 -1.507813,-0.4082 l 0.308594,0.22852 c 1.321529,0.98237 3.189503,0.70823 4.171875,-0.61328 0.982377,-1.32155 0.706295,-3.18947 -0.615234,-4.17188 z"
           transform="matrix(0.26458334,0,0,0.26458334,0,212.33331)"
           id="path1424" />
        <path
           style="opacity:1;fill:#babdb6;fill-opacity:1;stroke:none;stroke-width:0.617284;stroke-linecap:butt;stroke-miterlimit:4;stroke-dasharray:none;stroke-dashoffset:30.23622131;stroke-opacity:1"
           d="m 5.8574024,410.77666 a 0.79374874,0.79374874 0 0 1 -0.793749,0.79375 0.79374874,0.79374874 0 0 1 -0.793749,-0.79375 0.79374874,0.79374874 0 0 1 0.793749,-0.79375 0.79374874,0.79374874 0 0 1 0.793749,0.79375 z"
           id="path1426"
           inkscape:connector-curvature="0" />
      </g>
    </g>
  </g>
</svg>
