<?xml version="1.0" encoding="UTF-8" standalone="no"?>
<!-- Created with Inkscape (http://www.inkscape.org/) -->

<svg
   xmlns:dc="http://purl.org/dc/elements/1.1/"
   xmlns:cc="http://creativecommons.org/ns#"
   xmlns:rdf="http://www.w3.org/1999/02/22-rdf-syntax-ns#"
   xmlns:svg="http://www.w3.org/2000/svg"
   xmlns="http://www.w3.org/2000/svg"
   xmlns:sodipodi="http://sodipodi.sourceforge.net/DTD/sodipodi-0.dtd"
   xmlns:inkscape="http://www.inkscape.org/namespaces/inkscape"
   width="26.4569mm"
   height="26.4569mm"
   viewBox="0 0 26.4569 26.4569"
   version="1.1"
   id="svg5675"
   inkscape:version="0.92.4 5da689c313, 2019-01-14"
   sodipodi:docname="karma_logo_v1.svg">
  <defs
     id="defs5669" />
  <sodipodi:namedview
     id="base"
     pagecolor="#ffffff"
     bordercolor="#666666"
     borderopacity="1.0"
     inkscape:pageopacity="0.0"
     inkscape:pageshadow="2"
     inkscape:zoom="0.7"
     inkscape:cx="-144.88078"
     inkscape:cy="-172.49829"
     inkscape:document-units="mm"
     inkscape:current-layer="layer1"
     showgrid="false"
     fit-margin-top="1"
     fit-margin-left="1"
     fit-margin-right="1"
     fit-margin-bottom="1"
     inkscape:window-width="2560"
     inkscape:window-height="1331"
     inkscape:window-x="0"
     inkscape:window-y="36"
     inkscape:window-maximized="1" />
  <metadata
     id="metadata5672">
    <rdf:RDF>
      <cc:Work
         rdf:about="">
        <dc:format>image/svg+xml</dc:format>
        <dc:type
           rdf:resource="http://purl.org/dc/dcmitype/StillImage" />
        <dc:title></dc:title>
      </cc:Work>
    </rdf:RDF>
  </metadata>
  <g
     inkscape:label="Layer 1"
     inkscape:groupmode="layer"
     id="layer1"
     transform="translate(-50.27155,-18.054285)">
    <g
       transform="translate(-81.165207,-208.94987)"
       id="g5653">
      <circle
         r="12.22845"
         cy="240.2326"
         cx="144.66521"
         id="path5561"
         style="opacity:1;fill:#204a87;fill-opacity:1;stroke:none;stroke-width:0.80000001;stroke-linecap:butt;stroke-miterlimit:4;stroke-dasharray:none;stroke-dashoffset:30.23622131;stroke-opacity:0.66666667" />
      <path
         inkscape:connector-curvature="0"
         style="fill:#ffffff;stroke-width:0.26458332"
         d="m 139.64109,237.6899 c -0.39385,0 -1.03173,0.12254 -1.45004,0.27905 -2.48003,0.9279 -2.85947,3.41589 -0.91984,5.55366 0.0708,0.078 0.13747,0.15659 0.21445,0.23358 1.43516,1.43515 3.50075,2.06212 5.05293,1.53324 0,0 0.42178,-0.0977 0.60512,-0.20619 1.22052,-0.72227 1.39204,-1.04601 2.00454,-1.67432 0.7967,-0.81726 1.25832,-1.35237 1.25832,-1.35237 1.41202,-1.42409 1.96675,-1.74263 3.08766,-1.83813 0.51273,-0.0437 0.75425,0.0727 0.83975,0.41341 0.13253,0.52812 -0.14946,1.58799 -0.66095,2.64222 l -0.45423,0.93638 0.8785,0.88935 c 0.48308,0.48909 0.91558,0.88935 0.96118,0.88935 0.13102,0 0.88096,-1.71429 1.05213,-2.40502 0.19935,-0.80444 0.10788,-2.00072 -0.20205,-2.64635 -0.39006,-0.81252 -1.45811,-1.88173 -2.2841,-2.28668 -0.47016,-0.2305 -0.97844,-0.35115 -1.49087,-0.36536 -0.85405,-0.0237 -1.72031,0.2479 -2.44481,0.79789 -0.23066,0.17509 -0.49403,0.40101 -0.49403,0.40101 0,0 -0.72383,0.80177 -1.52187,1.70119 -0.34481,0.38861 -0.58719,0.6188 -1.2206,1.17408 -0.38041,0.33349 -0.93701,0.72521 -1.23661,0.87075 -0.93748,0.45539 -1.7812,0.54262 -2.77761,0.093 -0.18699,-0.0844 -0.35785,-0.35539 -0.49816,-0.62528 l 5.2e-4,-0.002 c -0.2755,-1.25435 0.29818,-2.87271 1.8929,-3.56103 0.28159,-0.12154 0.56094,-0.103 0.80202,-0.0336 0.11278,0.0335 0.14127,0.0452 0.24495,0.10284 0.14646,0.0814 0.31668,0.20603 0.42633,0.33124 0.13454,0.15361 0.23329,0.31719 0.35657,0.48008 0.0517,0.0683 0.0538,0.0807 0.0961,0.15503 0.0517,0.0909 0.1264,0.16858 0.1726,0.26148 l 1.35496,-0.90847 c -0.24742,-0.26015 -0.40454,-0.5222 -0.68575,-0.78187 -0.41934,-0.3628 -0.91784,-0.71105 -1.45055,-0.86868 -0.51919,-0.14999 -0.96302,-0.18396 -1.50947,-0.18396 z"
         id="path5553" />
      <g
         id="g5559"
         transform="translate(64.02917,79.375004)"
         style="fill:#ffffff">
        <path
           id="path5555"
           d="m 79.643852,156.47255 h -2.605437 -2.60544 l -0.915124,-0.92219 -0.915126,-0.92219 h 7.422547 7.422537 l 0.93953,0.91998 0.93953,0.91998 -3.85345,0.002 -3.853447,0.002 z"
           style="fill:#ffffff;stroke-width:0.26458332"
           inkscape:connector-curvature="0"
           sodipodi:nodetypes="cccccccccccc" />
        <path
           sodipodi:nodetypes="cccccccccccccc"
           id="path5557"
           d="m 80.598982,169.37254 -0.95513,-0.99658 v -1.33384 -1.33385 -7.77269 -1.9922 l 1.97612,-4.2e-4 v 2.042 l 0.005,5.98963 -0.0352,3.19705 -0.0353,3.19706 z m -0.95513,-7.56153 z"
           style="fill:#ffffff;stroke-width:0.26458332"
           inkscape:connector-curvature="0" />
      </g>
    </g>
  </g>
</svg>
